<svg xmlns="http://www.w3.org/2000/svg" xmlns:xlink="http://www.w3.org/1999/xlink" width="1080" zoomAndPan="magnify" viewBox="0 0 810 809.999993" height="1080" preserveAspectRatio="xMidYMid meet" version="1.0"><defs><clipPath id="51cf13239a"><path d="M 20.460938 21.019531 L 791.6875 21.019531 L 791.6875 792.246094 L 20.460938 792.246094 Z M 20.460938 21.019531 " clip-rule="nonzero"/></clipPath><clipPath id="3a1d5cf937"><path d="M 253 210 L 674.832031 210 L 674.832031 586 L 253 586 Z M 253 210 " clip-rule="nonzero"/></clipPath><clipPath id="1cb33d420e"><path d="M 142.746094 463 L 431 463 L 431 652 L 142.746094 652 Z M 142.746094 463 " clip-rule="nonzero"/></clipPath></defs><g clip-path="url(#51cf13239a)"><path fill="#1ea9fd" d="M 406.074219 792.246094 C 193.035156 792.246094 20.460938 618.480469 20.460938 406.632812 C 20.460938 194.78125 193.035156 21.019531 406.074219 21.019531 C 619.113281 21.019531 791.6875 193.59375 791.6875 406.632812 C 791.6875 619.671875 617.925781 792.246094 406.074219 792.246094 Z M 406.074219 44.820312 C 206.128906 44.820312 44.265625 206.683594 44.265625 406.632812 C 44.265625 606.578125 206.128906 768.441406 406.074219 768.441406 C 606.023438 768.441406 767.886719 606.578125 767.886719 406.632812 C 767.886719 206.683594 604.832031 44.820312 406.074219 44.820312 Z M 406.074219 44.820312 " fill-opacity="1" fill-rule="nonzero"/></g><g clip-path="url(#3a1d5cf937)"><path fill="#f26a34" d="M 663.746094 585.296875 L 408.789062 585.296875 L 408.789062 563.242188 L 652.660156 563.242188 L 652.660156 232.4375 L 275.765625 232.4375 L 275.765625 320.652344 L 253.597656 320.652344 L 253.597656 221.410156 C 253.597656 215.324219 258.5625 210.382812 264.679688 210.382812 L 663.746094 210.382812 C 669.84375 210.382812 674.832031 215.324219 674.832031 221.410156 L 674.832031 574.269531 C 674.832031 580.355469 669.84375 585.296875 663.746094 585.296875 Z M 663.746094 585.296875 " fill-opacity="1" fill-rule="nonzero"/></g><path fill="#f26a34" d="M 286.851562 497.082031 C 231.847656 497.082031 187.085938 452.53125 187.085938 397.839844 C 187.085938 343.144531 231.847656 298.597656 286.851562 298.597656 C 341.855469 298.597656 386.617188 343.144531 386.617188 397.839844 C 386.617188 452.53125 341.855469 497.082031 286.851562 497.082031 Z M 286.851562 320.652344 C 244.0625 320.652344 209.253906 355.277344 209.253906 397.839844 C 209.253906 440.402344 244.0625 475.027344 286.851562 475.027344 C 329.640625 475.027344 364.449219 440.402344 364.449219 397.839844 C 364.449219 355.277344 329.640625 320.652344 286.851562 320.652344 Z M 286.851562 320.652344 " fill-opacity="1" fill-rule="nonzero"/><g clip-path="url(#1cb33d420e)"><path fill="#f26a34" d="M 419.871094 651.457031 L 153.828125 651.457031 C 147.710938 651.457031 142.746094 646.519531 142.746094 640.429688 L 142.746094 599.984375 C 142.746094 539.359375 181.785156 484.886719 239.917969 464.441406 C 244.792969 462.742188 250.203125 464.640625 252.953125 468.917969 L 286.875 522.023438 L 321.171875 468.632812 C 323.921875 464.375 329.242188 462.523438 334.074219 464.132812 C 392.027344 483.628906 430.980469 536.734375 430.980469 596.300781 L 430.980469 640.410156 C 430.957031 646.519531 425.96875 651.457031 419.871094 651.457031 Z M 164.914062 629.40625 L 408.789062 629.40625 L 408.789062 596.324219 C 408.789062 549.019531 379.480469 506.519531 335.003906 488.0625 L 296.183594 548.511719 C 294.144531 551.6875 290.621094 553.5625 286.851562 553.5625 C 283.058594 553.5625 279.535156 551.621094 277.519531 548.511719 L 239.164062 488.4375 C 194.421875 507.777344 164.9375 551.53125 164.9375 600.007812 Z M 164.914062 629.40625 " fill-opacity="1" fill-rule="nonzero"/></g><path fill="#f26a34" d="M 563.980469 298.597656 L 430.957031 298.597656 C 424.863281 298.597656 419.871094 293.65625 419.871094 287.570312 C 419.871094 281.484375 424.863281 276.542969 430.957031 276.542969 L 563.980469 276.542969 C 570.078125 276.542969 575.066406 281.484375 575.066406 287.570312 C 575.066406 293.65625 570.078125 298.597656 563.980469 298.597656 Z M 563.980469 298.597656 " fill-opacity="1" fill-rule="nonzero"/><path fill="#f26a34" d="M 608.320312 364.757812 L 430.957031 364.757812 C 424.863281 364.757812 419.871094 359.820312 419.871094 353.730469 C 419.871094 347.644531 424.863281 342.707031 430.957031 342.707031 L 608.320312 342.707031 C 614.417969 342.707031 619.40625 347.644531 619.40625 353.730469 C 619.40625 359.820312 614.417969 364.757812 608.320312 364.757812 Z M 608.320312 364.757812 " fill-opacity="1" fill-rule="nonzero"/><path fill="#f26a34" d="M 608.320312 430.921875 L 430.957031 430.921875 C 424.863281 430.921875 419.871094 425.980469 419.871094 419.894531 C 419.871094 413.808594 424.863281 408.867188 430.957031 408.867188 L 608.320312 408.867188 C 614.417969 408.867188 619.40625 413.808594 619.40625 419.894531 C 619.40625 425.980469 614.417969 430.921875 608.320312 430.921875 Z M 608.320312 430.921875 " fill-opacity="1" fill-rule="nonzero"/><path fill="#f26a34" d="M 399.609375 528.265625 C 396.773438 528.265625 393.933594 527.183594 391.761719 525.046875 C 387.4375 520.789062 387.4375 513.753906 391.761719 509.453125 L 454.480469 447.085938 C 458.78125 442.828125 465.832031 442.828125 470.15625 447.085938 C 474.457031 451.386719 474.457031 458.421875 470.15625 462.679688 L 407.433594 525.046875 C 405.285156 527.183594 402.445312 528.265625 399.609375 528.265625 Z M 399.609375 528.265625 " fill-opacity="1" fill-rule="nonzero"/></svg>