<svg xmlns="http://www.w3.org/2000/svg" xmlns:xlink="http://www.w3.org/1999/xlink" width="1080" zoomAndPan="magnify" viewBox="0 0 810 809.999993" height="1080" preserveAspectRatio="xMidYMid meet" version="1.0"><defs><clipPath id="e5990abde1"><path d="M 18.851562 19.464844 L 789.304688 19.464844 L 789.304688 789.914062 L 18.851562 789.914062 Z M 18.851562 19.464844 " clip-rule="nonzero"/></clipPath><clipPath id="196e42c60c"><path d="M 262 173.382812 L 496 173.382812 L 496 484 L 262 484 Z M 262 173.382812 " clip-rule="nonzero"/></clipPath><clipPath id="1ed06c560b"><path d="M 118.3125 313 L 398 313 L 398 639.238281 L 118.3125 639.238281 Z M 118.3125 313 " clip-rule="nonzero"/></clipPath></defs><g clip-path="url(#e5990abde1)"><path fill="#1ea9fd" d="M 404.078125 789.914062 C 191.253906 789.914062 18.851562 616.324219 18.851562 404.6875 C 18.851562 193.050781 191.253906 19.464844 404.078125 19.464844 C 616.902344 19.464844 789.304688 191.863281 789.304688 404.6875 C 789.304688 617.515625 615.714844 789.914062 404.078125 789.914062 Z M 404.078125 43.242188 C 204.332031 43.242188 42.632812 204.941406 42.632812 404.6875 C 42.632812 604.433594 204.332031 766.136719 404.078125 766.136719 C 603.824219 766.136719 765.523438 604.433594 765.523438 404.6875 C 765.523438 204.941406 602.636719 43.242188 404.078125 43.242188 Z M 404.078125 43.242188 " fill-opacity="1" fill-rule="nonzero"/></g><g clip-path="url(#196e42c60c)"><path fill="#f26a34" d="M 280.691406 191.339844 L 478.042969 191.339844 L 478.042969 465.644531 L 280.691406 465.644531 Z M 271.761719 483.554688 L 486.96875 483.554688 C 491.898438 483.554688 495.898438 479.546875 495.898438 474.601562 L 495.898438 182.382812 C 495.898438 177.4375 491.898438 173.425781 486.96875 173.425781 L 271.761719 173.425781 C 266.832031 173.425781 262.835938 177.4375 262.835938 182.382812 L 262.835938 474.601562 C 262.835938 479.546875 266.832031 483.554688 271.761719 483.554688 " fill-opacity="1" fill-rule="nonzero"/></g><path fill="#f26a34" d="M 323.785156 225.371094 L 352.21875 225.371094 L 352.21875 260.535156 L 323.785156 260.535156 Z M 314.859375 278.445312 L 361.148438 278.445312 C 366.078125 278.445312 370.074219 274.4375 370.074219 269.492188 L 370.074219 216.414062 C 370.074219 211.46875 366.078125 207.460938 361.148438 207.460938 L 314.859375 207.460938 C 309.929688 207.460938 305.929688 211.46875 305.929688 216.414062 L 305.929688 269.492188 C 305.929688 274.4375 309.929688 278.445312 314.859375 278.445312 " fill-opacity="1" fill-rule="nonzero"/><path fill="#f26a34" d="M 447.113281 233.996094 L 398.789062 233.996094 C 393.859375 233.996094 389.863281 238.007812 389.863281 242.953125 C 389.863281 247.898438 393.859375 251.910156 398.789062 251.910156 L 447.113281 251.910156 C 452.042969 251.910156 456.042969 247.898438 456.042969 242.953125 C 456.042969 238.007812 452.042969 233.996094 447.113281 233.996094 " fill-opacity="1" fill-rule="nonzero"/><path fill="#f26a34" d="M 447.113281 260.535156 L 398.789062 260.535156 C 393.859375 260.535156 389.863281 264.542969 389.863281 269.492188 C 389.863281 274.4375 393.859375 278.445312 398.789062 278.445312 L 447.113281 278.445312 C 452.042969 278.445312 456.042969 274.4375 456.042969 269.492188 C 456.042969 264.542969 452.042969 260.535156 447.113281 260.535156 " fill-opacity="1" fill-rule="nonzero"/><path fill="#f26a34" d="M 447.113281 303.75 L 311.617188 303.75 C 306.6875 303.75 302.691406 307.761719 302.691406 312.707031 C 302.691406 317.652344 306.6875 321.664062 311.617188 321.664062 L 447.113281 321.664062 C 452.042969 321.664062 456.042969 317.652344 456.042969 312.707031 C 456.042969 307.761719 452.042969 303.75 447.113281 303.75 " fill-opacity="1" fill-rule="nonzero"/><path fill="#f26a34" d="M 447.113281 343.558594 L 311.617188 343.558594 C 306.6875 343.558594 302.691406 347.566406 302.691406 352.515625 C 302.691406 357.460938 306.6875 361.46875 311.617188 361.46875 L 447.113281 361.46875 C 452.042969 361.46875 456.042969 357.460938 456.042969 352.515625 C 456.042969 347.566406 452.042969 343.558594 447.113281 343.558594 " fill-opacity="1" fill-rule="nonzero"/><path fill="#f26a34" d="M 447.113281 383.363281 L 311.617188 383.363281 C 306.6875 383.363281 302.691406 387.375 302.691406 392.320312 C 302.691406 397.265625 306.6875 401.277344 311.617188 401.277344 L 447.113281 401.277344 C 452.042969 401.277344 456.042969 397.265625 456.042969 392.320312 C 456.042969 387.375 452.042969 383.363281 447.113281 383.363281 " fill-opacity="1" fill-rule="nonzero"/><path fill="#f26a34" d="M 447.113281 423.167969 L 311.617188 423.167969 C 306.6875 423.167969 302.691406 427.179688 302.691406 432.125 C 302.691406 437.074219 306.6875 441.082031 311.617188 441.082031 L 447.113281 441.082031 C 452.042969 441.082031 456.042969 437.074219 456.042969 432.125 C 456.042969 427.179688 452.042969 423.167969 447.113281 423.167969 " fill-opacity="1" fill-rule="nonzero"/><path fill="#f26a34" d="M 683.480469 289.984375 L 513.945312 249.324219 C 509.152344 248.179688 504.332031 251.144531 503.1875 255.957031 C 502.039062 260.765625 505 265.597656 509.792969 266.75 L 670.648438 305.320312 L 607.082031 572.113281 L 415.140625 526.082031 L 421.164062 500.804688 C 422.3125 495.996094 419.351562 491.160156 414.554688 490.011719 C 409.761719 488.867188 404.945312 491.832031 403.796875 496.640625 L 395.699219 530.625 C 395.148438 532.941406 395.535156 535.375 396.773438 537.402344 C 398.011719 539.421875 400.003906 540.867188 402.308594 541.425781 L 611.617188 591.617188 C 612.3125 591.785156 613.011719 591.863281 613.695312 591.863281 C 617.730469 591.863281 621.394531 589.097656 622.375 584.988281 L 690.085938 300.773438 C 691.230469 295.960938 688.277344 291.128906 683.480469 289.984375 " fill-opacity="1" fill-rule="nonzero"/><path fill="#f26a34" d="M 515.121094 339.171875 C 510.332031 338.023438 505.507812 340.992188 504.363281 345.800781 C 503.214844 350.613281 506.175781 355.445312 510.972656 356.59375 L 536.769531 362.78125 C 537.464844 362.949219 538.164062 363.027344 538.851562 363.027344 C 542.890625 363.027344 546.546875 360.261719 547.527344 356.152344 L 559.824219 304.535156 C 560.375 302.21875 559.988281 299.789062 558.746094 297.765625 C 557.511719 295.738281 555.523438 294.292969 553.214844 293.738281 L 515.121094 284.605469 C 510.332031 283.460938 505.507812 286.425781 504.363281 291.234375 C 503.214844 296.046875 506.175781 300.878906 510.972656 302.027344 L 540.382812 309.078125 L 532.234375 343.277344 L 515.121094 339.171875 " fill-opacity="1" fill-rule="nonzero"/><path fill="#f26a34" d="M 626.527344 357.023438 C 627.226562 357.1875 627.921875 357.269531 628.613281 357.269531 C 632.648438 357.269531 636.304688 354.503906 637.285156 350.394531 C 638.433594 345.582031 635.472656 340.75 630.679688 339.597656 L 583.679688 328.328125 C 578.886719 327.183594 574.066406 330.148438 572.917969 334.960938 C 571.773438 339.769531 574.734375 344.601562 579.527344 345.753906 L 626.527344 357.023438 " fill-opacity="1" fill-rule="nonzero"/><path fill="#f26a34" d="M 566.773438 360.765625 C 565.625 365.578125 568.582031 370.410156 573.378906 371.558594 L 620.378906 382.828125 C 621.074219 383 621.773438 383.078125 622.460938 383.078125 C 626.496094 383.078125 630.160156 380.316406 631.136719 376.203125 C 632.28125 371.394531 629.328125 366.558594 624.53125 365.410156 L 577.53125 354.136719 C 572.738281 352.992188 567.917969 355.957031 566.773438 360.765625 " fill-opacity="1" fill-rule="nonzero"/><path fill="#f26a34" d="M 510.972656 401.03125 L 610.363281 424.867188 C 611.0625 425.03125 611.757812 425.117188 612.449219 425.117188 C 616.484375 425.117188 620.140625 422.347656 621.121094 418.238281 C 622.269531 413.425781 619.308594 408.59375 614.515625 407.441406 L 515.121094 383.609375 C 510.332031 382.460938 505.507812 385.425781 504.363281 390.238281 C 503.214844 395.050781 506.175781 399.882812 510.972656 401.03125 " fill-opacity="1" fill-rule="nonzero"/><path fill="#f26a34" d="M 611.898438 456.949219 C 613.046875 452.144531 610.085938 447.304688 605.289062 446.160156 L 520.953125 425.933594 C 516.160156 424.789062 511.34375 427.75 510.195312 432.5625 C 509.050781 437.375 512.007812 442.207031 516.804688 443.355469 L 601.140625 463.578125 C 601.839844 463.75 602.535156 463.828125 603.222656 463.828125 C 607.261719 463.828125 610.917969 461.0625 611.898438 456.949219 " fill-opacity="1" fill-rule="nonzero"/><path fill="#f26a34" d="M 596.066406 484.871094 L 516.898438 465.886719 C 512.105469 464.738281 507.289062 467.707031 506.140625 472.519531 C 504.996094 477.328125 507.953125 482.160156 512.75 483.3125 L 591.917969 502.296875 C 592.613281 502.460938 593.3125 502.542969 594 502.542969 C 598.035156 502.542969 601.695312 499.777344 602.675781 495.667969 C 603.820312 490.855469 600.863281 486.023438 596.066406 484.871094 " fill-opacity="1" fill-rule="nonzero"/><path fill="#f26a34" d="M 444.308594 498.613281 C 443.160156 503.425781 446.117188 508.261719 450.910156 509.410156 L 582.691406 541.007812 C 583.390625 541.179688 584.085938 541.257812 584.777344 541.257812 C 588.8125 541.257812 592.46875 538.488281 593.449219 534.378906 C 594.597656 529.566406 591.636719 524.734375 586.84375 523.585938 L 455.066406 491.984375 C 450.269531 490.839844 445.453125 493.804688 444.308594 498.613281 " fill-opacity="1" fill-rule="nonzero"/><g clip-path="url(#1ed06c560b)"><path fill="#f26a34" d="M 381.332031 499.222656 C 380.515625 494.339844 375.914062 491.058594 371.050781 491.863281 C 366.1875 492.679688 362.90625 497.296875 363.71875 502.171875 L 377.914062 587.339844 L 183.269531 619.996094 L 138.171875 349.449219 L 243.984375 331.695312 C 248.847656 330.882812 252.128906 326.265625 251.316406 321.382812 C 250.503906 316.503906 245.902344 313.222656 241.039062 314.027344 L 126.425781 333.253906 C 124.089844 333.648438 122.003906 334.953125 120.628906 336.886719 C 119.253906 338.820312 118.699219 341.222656 119.089844 343.566406 L 167.125 631.78125 C 167.859375 636.164062 171.636719 639.265625 175.921875 639.265625 C 176.410156 639.265625 176.910156 639.222656 177.40625 639.140625 L 389.660156 603.53125 C 391.996094 603.140625 394.082031 601.832031 395.457031 599.898438 C 396.832031 597.96875 397.386719 595.5625 396.996094 593.222656 L 381.332031 499.222656 " fill-opacity="1" fill-rule="nonzero"/></g><path fill="#f26a34" d="M 214.320312 371.179688 L 220.097656 405.859375 L 192.050781 410.566406 L 186.273438 375.886719 Z M 186.191406 429.707031 L 231.847656 422.050781 C 234.183594 421.660156 236.265625 420.351562 237.640625 418.421875 C 239.015625 416.488281 239.570312 414.082031 239.179688 411.742188 L 230.457031 359.394531 C 229.640625 354.511719 225.039062 351.226562 220.175781 352.039062 L 174.523438 359.695312 C 172.1875 360.089844 170.105469 361.390625 168.726562 363.324219 C 167.351562 365.261719 166.800781 367.664062 167.1875 370.007812 L 175.914062 422.351562 C 176.640625 426.730469 180.425781 429.835938 184.707031 429.835938 C 185.199219 429.835938 185.691406 429.796875 186.191406 429.707031 " fill-opacity="1" fill-rule="nonzero"/><path fill="#f26a34" d="M 241.816406 446.035156 L 187.15625 455.203125 C 182.296875 456.019531 179.015625 460.636719 179.824219 465.515625 C 180.558594 469.894531 184.335938 472.996094 188.621094 472.996094 C 189.109375 472.996094 189.605469 472.957031 190.101562 472.871094 L 244.757812 463.707031 C 249.625 462.886719 252.90625 458.269531 252.089844 453.394531 C 251.28125 448.511719 246.679688 445.222656 241.816406 446.035156 " fill-opacity="1" fill-rule="nonzero"/><path fill="#f26a34" d="M 248.238281 485.316406 L 193.703125 494.464844 C 188.839844 495.28125 185.558594 499.898438 186.367188 504.777344 C 187.101562 509.152344 190.878906 512.257812 195.164062 512.257812 C 195.652344 512.257812 196.148438 512.214844 196.648438 512.132812 L 251.179688 502.984375 C 256.042969 502.167969 259.328125 497.550781 258.511719 492.675781 C 257.699219 487.792969 253.097656 484.511719 248.238281 485.316406 " fill-opacity="1" fill-rule="nonzero"/><path fill="#f26a34" d="M 336.828125 528.972656 C 341.6875 528.160156 344.972656 523.542969 344.160156 518.664062 C 343.34375 513.785156 338.746094 510.5 333.882812 511.304688 L 200.246094 533.722656 C 195.382812 534.539062 192.101562 539.15625 192.914062 544.035156 C 193.644531 548.414062 197.421875 551.511719 201.707031 551.511719 C 202.195312 551.511719 202.691406 551.472656 203.191406 551.390625 L 336.828125 528.972656 " fill-opacity="1" fill-rule="nonzero"/><path fill="#f26a34" d="M 208.25 590.777344 C 208.738281 590.777344 209.234375 590.738281 209.734375 590.652344 L 343.371094 568.234375 C 348.230469 567.417969 351.515625 562.800781 350.703125 557.925781 C 349.886719 553.042969 345.285156 549.75 340.425781 550.566406 L 206.789062 572.980469 C 201.925781 573.800781 198.644531 578.417969 199.457031 583.292969 C 200.1875 587.671875 203.964844 590.777344 208.25 590.777344 " fill-opacity="1" fill-rule="nonzero"/></svg>