<svg xmlns="http://www.w3.org/2000/svg" xmlns:xlink="http://www.w3.org/1999/xlink" width="1080" zoomAndPan="magnify" viewBox="0 0 810 809.999993" height="1080" preserveAspectRatio="xMidYMid meet" version="1.0"><defs><clipPath id="8c24eddcd4"><path d="M 18.851562 15.132812 L 790.078125 15.132812 L 790.078125 786.359375 L 18.851562 786.359375 Z M 18.851562 15.132812 " clip-rule="nonzero"/></clipPath><clipPath id="b1aecccdb0"><path d="M 380 632 L 588 632 L 588 728.191406 L 380 728.191406 Z M 380 632 " clip-rule="nonzero"/></clipPath></defs><g clip-path="url(#8c24eddcd4)"><path fill="#1ea9fd" d="M 404.464844 786.359375 C 191.425781 786.359375 18.851562 612.597656 18.851562 400.746094 C 18.851562 188.898438 191.425781 15.132812 404.464844 15.132812 C 617.507812 15.132812 790.078125 187.707031 790.078125 400.746094 C 790.078125 613.785156 616.316406 786.359375 404.464844 786.359375 Z M 404.464844 38.9375 C 204.519531 38.9375 42.65625 200.800781 42.65625 400.746094 C 42.65625 600.695312 204.519531 762.558594 404.464844 762.558594 C 604.414062 762.558594 766.277344 600.695312 766.277344 400.746094 C 766.277344 200.800781 603.222656 38.9375 404.464844 38.9375 Z M 404.464844 38.9375 " fill-opacity="1" fill-rule="nonzero"/></g><path fill="#f26a34" d="M 406.199219 210.113281 C 367.074219 210.113281 335.0625 242.113281 335.0625 281.222656 C 335.0625 320.332031 367.074219 352.332031 406.199219 352.332031 C 445.324219 352.332031 477.335938 320.332031 477.335938 281.222656 C 477.335938 242.113281 445.324219 210.113281 406.199219 210.113281 Z M 406.199219 332.015625 C 378.253906 332.015625 355.386719 309.160156 355.386719 281.222656 C 355.386719 253.289062 378.253906 230.433594 406.199219 230.433594 C 434.148438 230.433594 457.011719 253.289062 457.011719 281.222656 C 457.011719 309.160156 434.148438 332.015625 406.199219 332.015625 Z M 406.199219 332.015625 " fill-opacity="1" fill-rule="nonzero"/><path fill="#f26a34" d="M 280.1875 367.570312 C 281.710938 368.078125 283.234375 368.585938 285.265625 369.09375 L 300.511719 375.1875 C 313.214844 361.980469 331 354.363281 349.289062 352.839844 C 342.683594 347.761719 337.097656 341.664062 332.523438 335.0625 C 312.199219 340.140625 292.890625 351.316406 280.1875 367.570312 Z M 280.1875 367.570312 " fill-opacity="1" fill-rule="nonzero"/><path fill="#f26a34" d="M 509.347656 372.648438 L 526.625 365.539062 C 527.640625 365.03125 528.148438 365.03125 529.167969 364.523438 C 516.464844 349.792969 498.679688 339.632812 479.878906 335.0625 C 474.796875 341.664062 469.207031 347.761719 463.109375 352.839844 C 480.386719 354.363281 497.15625 360.964844 509.347656 372.648438 Z M 509.347656 372.648438 " fill-opacity="1" fill-rule="nonzero"/><path fill="#f26a34" d="M 592.679688 188.78125 L 591.15625 188.273438 C 585.566406 187.257812 580.488281 190.8125 578.960938 196.402344 C 577.945312 201.988281 581.503906 207.066406 587.09375 208.589844 L 623.167969 215.703125 C 623.675781 215.703125 624.691406 215.703125 625.203125 215.703125 C 627.742188 215.703125 630.28125 214.6875 632.316406 212.65625 C 634.855469 210.113281 635.871094 206.558594 634.855469 203.511719 L 627.742188 167.449219 C 626.726562 161.863281 621.136719 158.308594 615.546875 159.324219 C 609.957031 160.339844 606.402344 165.925781 607.417969 171.511719 L 608.433594 176.085938 C 565.75 137.484375 511.382812 110.5625 450.914062 101.929688 C 451.421875 103.960938 451.929688 105.992188 451.929688 108.53125 C 451.929688 113.101562 450.914062 117.675781 448.882812 121.738281 C 503.25 130.371094 553.046875 154.246094 592.679688 188.78125 Z M 592.679688 188.78125 " fill-opacity="1" fill-rule="nonzero"/><path fill="#f26a34" d="M 726.824219 379.25 C 722.253906 376.203125 715.648438 377.21875 712.597656 382.296875 L 710.566406 385.855469 C 707.007812 324.902344 685.667969 268.523438 651.117188 222.304688 C 650.097656 224.335938 648.574219 225.859375 647.050781 227.382812 C 643.492188 230.941406 639.429688 232.972656 635.363281 234.496094 C 666.867188 276.652344 686.683594 327.953125 690.242188 383.824219 L 689.226562 382.296875 C 686.175781 377.726562 679.570312 376.203125 674.996094 379.25 C 670.425781 382.296875 668.898438 388.902344 671.949219 393.472656 L 692.273438 423.949219 C 694.304688 426.996094 697.355469 428.519531 700.910156 428.519531 C 704.46875 428.519531 707.515625 426.996094 709.550781 423.949219 L 729.875 393.472656 C 732.921875 388.902344 731.398438 382.296875 726.824219 379.25 Z M 726.824219 379.25 " fill-opacity="1" fill-rule="nonzero"/><path fill="#f26a34" d="M 700.910156 448.835938 C 696.339844 448.835938 691.765625 447.820312 687.699219 445.789062 C 679.570312 500.644531 655.6875 549.910156 620.628906 590.035156 L 621.136719 588.511719 C 622.152344 582.925781 618.597656 577.847656 613.007812 576.324219 C 607.417969 575.308594 602.335938 578.863281 600.8125 584.449219 L 593.699219 620.511719 C 593.191406 624.066406 594.207031 627.113281 596.238281 629.652344 C 598.269531 631.683594 600.8125 632.703125 603.351562 632.703125 C 603.859375 632.703125 604.875 632.703125 605.382812 632.703125 L 641.460938 625.589844 C 647.050781 624.574219 650.609375 618.988281 649.589844 613.402344 C 648.574219 607.8125 642.984375 604.257812 637.394531 605.273438 L 633.332031 606.289062 C 671.949219 563.117188 698.371094 508.769531 707.515625 448.328125 C 705.484375 448.328125 703.453125 448.835938 700.910156 448.835938 Z M 700.910156 448.835938 " fill-opacity="1" fill-rule="nonzero"/><g clip-path="url(#b1aecccdb0)"><path fill="#f26a34" d="M 582.011719 643.875 C 578.453125 640.320312 576.421875 636.257812 574.898438 632.195312 C 532.722656 663.683594 481.402344 683.492188 425.507812 687.046875 L 427.035156 686.03125 C 431.605469 682.984375 433.132812 676.382812 430.082031 671.8125 C 427.035156 667.238281 420.429688 665.714844 415.855469 668.761719 L 385.367188 689.082031 C 382.320312 691.113281 380.792969 694.160156 380.792969 697.714844 C 380.792969 701.269531 382.320312 704.316406 385.367188 706.347656 L 415.855469 726.664062 C 417.378906 727.683594 419.410156 728.191406 421.445312 728.191406 C 424.492188 728.191406 428.050781 726.664062 430.082031 723.617188 C 433.128906 719.046875 432.113281 712.445312 427.035156 709.398438 L 423.476562 707.363281 C 484.453125 703.808594 540.851562 682.476562 587.09375 647.9375 C 585.566406 646.921875 584.042969 645.398438 582.011719 643.875 Z M 582.011719 643.875 " fill-opacity="1" fill-rule="nonzero"/></g><path fill="#f26a34" d="M 219.71875 617.464844 L 221.242188 617.972656 C 226.832031 618.988281 231.914062 615.433594 233.4375 609.84375 C 234.453125 604.257812 230.898438 599.179688 225.308594 597.65625 L 189.230469 590.542969 C 185.675781 590.035156 182.625 591.050781 180.085938 593.082031 C 177.546875 595.625 176.527344 599.179688 177.546875 602.226562 L 184.660156 638.289062 C 185.675781 643.367188 189.738281 646.414062 194.820312 646.414062 C 195.328125 646.414062 196.34375 646.414062 196.855469 646.414062 C 202.441406 645.398438 206 639.8125 204.984375 634.226562 L 203.96875 629.652344 C 247.15625 668.253906 301.527344 695.175781 361.992188 703.808594 C 361.484375 701.777344 360.976562 699.238281 360.976562 697.207031 C 360.976562 692.636719 361.992188 688.0625 364.027344 684 C 309.148438 675.875 259.351562 652.003906 219.71875 617.464844 Z M 219.71875 617.464844 " fill-opacity="1" fill-rule="nonzero"/><path fill="#f26a34" d="M 122.160156 422.425781 L 123.175781 423.949219 C 125.207031 426.996094 128.257812 428.519531 131.8125 428.519531 C 133.847656 428.519531 135.878906 428.011719 137.402344 426.996094 C 141.976562 423.949219 143.5 417.34375 140.453125 412.773438 L 120.128906 382.296875 C 118.09375 379.25 115.046875 377.726562 111.488281 377.726562 C 107.933594 377.726562 104.882812 379.25 102.851562 382.296875 L 82.527344 412.773438 C 79.476562 417.34375 80.492188 423.949219 85.574219 426.996094 C 90.148438 430.042969 96.753906 429.027344 99.800781 423.949219 L 101.835938 420.390625 C 105.390625 481.34375 126.734375 537.722656 161.285156 583.941406 C 162.300781 581.910156 163.824219 580.386719 165.351562 578.863281 C 168.90625 575.308594 172.972656 573.273438 177.035156 571.75 C 146.042969 529.59375 126.226562 478.292969 122.160156 422.425781 Z M 122.160156 422.425781 " fill-opacity="1" fill-rule="nonzero"/><path fill="#f26a34" d="M 111.488281 357.410156 C 116.0625 357.410156 120.636719 358.425781 124.699219 360.457031 C 132.832031 305.601562 156.710938 256.335938 191.773438 216.71875 L 191.265625 218.242188 C 190.25 223.828125 193.804688 228.90625 199.394531 230.433594 C 199.902344 230.433594 200.917969 230.433594 201.425781 230.433594 C 206 230.433594 210.574219 226.875 211.589844 222.304688 L 218.703125 186.242188 C 219.210938 182.6875 218.195312 179.640625 216.164062 177.101562 C 213.621094 174.5625 210.066406 173.546875 207.015625 174.5625 L 170.941406 181.671875 C 165.351562 182.6875 161.792969 188.273438 162.808594 193.863281 C 163.824219 199.449219 169.414062 203.003906 175.003906 201.988281 L 179.578125 200.972656 C 140.453125 243.636719 113.523438 297.984375 104.882812 358.425781 C 106.917969 357.917969 108.949219 357.410156 111.488281 357.410156 Z M 111.488281 357.410156 " fill-opacity="1" fill-rule="nonzero"/><path fill="#f26a34" d="M 230.390625 162.371094 C 233.945312 165.925781 235.980469 169.988281 237.503906 174.054688 C 279.679688 142.5625 331 122.753906 386.890625 119.199219 L 385.367188 120.214844 C 380.792969 123.261719 379.269531 129.863281 382.320312 134.433594 C 384.351562 137.484375 387.398438 139.007812 390.957031 139.007812 C 392.988281 139.007812 395.023438 138.5 396.546875 137.484375 L 427.035156 117.167969 C 430.082031 115.132812 431.605469 112.085938 431.605469 108.53125 C 431.605469 104.976562 430.082031 101.929688 427.035156 99.898438 L 396.546875 79.582031 C 391.972656 76.53125 385.367188 77.550781 382.320312 82.628906 C 379.269531 87.707031 380.792969 93.800781 385.367188 96.851562 L 388.925781 99.390625 C 327.441406 102.4375 271.039062 123.769531 224.800781 158.308594 C 226.832031 159.324219 228.359375 160.847656 230.390625 162.371094 Z M 230.390625 162.371094 " fill-opacity="1" fill-rule="nonzero"/><path fill="#f26a34" d="M 277.644531 557.53125 L 386.382812 598.164062 C 391.972656 600.195312 399.085938 601.210938 406.199219 601.210938 C 412.804688 601.210938 419.410156 600.195312 424.492188 598.671875 L 534.246094 559.5625 C 544.917969 556.007812 553.554688 543.816406 553.554688 532.640625 L 553.554688 513.339844 C 565.242188 509.785156 573.882812 500.136719 573.882812 488.960938 L 573.882812 469.660156 C 573.882812 458.484375 565.242188 448.835938 553.554688 445.28125 L 553.554688 397.027344 C 553.554688 388.394531 548.476562 382.804688 541.359375 382.804688 C 539.328125 382.804688 537.296875 383.3125 534.753906 384.332031 L 423.984375 430.042969 C 418.394531 432.074219 411.28125 433.597656 404.167969 433.597656 C 397.5625 433.597656 390.957031 432.582031 385.875 430.550781 L 277.136719 388.394531 C 275.105469 387.378906 272.5625 386.871094 270.53125 386.871094 C 263.417969 386.871094 257.828125 392.457031 257.828125 401.089844 L 257.828125 445.28125 C 246.140625 448.835938 237.503906 458.484375 237.503906 469.660156 L 237.503906 488.960938 C 237.503906 500.136719 246.140625 509.785156 257.828125 513.339844 L 257.828125 530.101562 C 258.84375 541.277344 267.484375 553.972656 277.644531 557.53125 Z M 553.554688 488.960938 C 553.554688 490.992188 549.492188 494.546875 543.394531 494.546875 C 537.296875 494.546875 533.230469 490.992188 533.230469 488.960938 L 533.230469 469.660156 C 533.230469 467.628906 537.296875 464.074219 543.394531 464.074219 C 549.492188 464.074219 553.554688 467.628906 553.554688 469.660156 Z M 432.113281 448.835938 L 533.230469 406.679688 L 533.230469 445.28125 C 521.542969 448.835938 512.90625 458.484375 512.90625 469.660156 L 512.90625 488.960938 C 512.90625 500.136719 521.542969 509.785156 533.230469 513.339844 L 533.230469 532.640625 C 533.230469 535.179688 530.183594 539.753906 527.640625 540.769531 L 417.886719 579.878906 C 417.378906 579.878906 416.871094 580.386719 416.363281 580.386719 L 416.363281 453.40625 C 421.953125 451.882812 427.542969 450.359375 432.113281 448.835938 Z M 379.269531 449.34375 C 384.859375 451.375 390.957031 452.898438 396.039062 453.40625 L 396.039062 580.386719 C 395.023438 580.386719 394.003906 579.878906 393.496094 579.878906 L 284.757812 539.246094 C 282.726562 537.722656 279.167969 533.148438 279.167969 530.101562 L 279.167969 513.339844 C 290.855469 509.785156 299.496094 500.136719 299.496094 488.960938 L 299.496094 469.660156 C 299.496094 458.484375 290.855469 448.835938 279.167969 445.28125 L 279.167969 410.742188 Z M 258.84375 469.660156 C 258.84375 467.628906 262.910156 464.074219 269.007812 464.074219 C 275.105469 464.074219 279.167969 467.628906 279.167969 469.660156 L 279.167969 488.960938 C 279.167969 490.992188 275.105469 494.546875 269.007812 494.546875 C 262.910156 494.546875 258.84375 490.992188 258.84375 488.960938 Z M 258.84375 469.660156 " fill-opacity="1" fill-rule="nonzero"/></svg>