<svg xmlns="http://www.w3.org/2000/svg" xmlns:xlink="http://www.w3.org/1999/xlink" width="1080" zoomAndPan="magnify" viewBox="0 0 810 809.999993" height="1080" preserveAspectRatio="xMidYMid meet" version="1.0"><defs><clipPath id="a2385eb1c8"><path d="M 16.089844 16.089844 L 795.078125 16.089844 L 795.078125 795.078125 L 16.089844 795.078125 Z M 16.089844 16.089844 " clip-rule="nonzero"/></clipPath><clipPath id="8ce65839b8"><path d="M 141.414062 301 L 307 301 L 307 557 L 141.414062 557 Z M 141.414062 301 " clip-rule="nonzero"/></clipPath><clipPath id="6485e74853"><path d="M 298 343 L 513 343 L 513 655.65625 L 298 655.65625 Z M 298 343 " clip-rule="nonzero"/></clipPath><clipPath id="c8da23e4b6"><path d="M 504 293 L 669.542969 293 L 669.542969 557 L 504 557 Z M 504 293 " clip-rule="nonzero"/></clipPath><clipPath id="4309c25b67"><path d="M 273 153.933594 L 538 153.933594 L 538 302 L 273 302 Z M 273 153.933594 " clip-rule="nonzero"/></clipPath></defs><g clip-path="url(#a2385eb1c8)"><path fill="#ffffff" d="M 405.585938 795.078125 C 190.402344 795.078125 16.089844 619.566406 16.089844 405.585938 C 16.089844 191.605469 190.402344 16.089844 405.585938 16.089844 C 620.769531 16.089844 795.078125 190.402344 795.078125 405.585938 C 795.078125 620.769531 619.566406 795.078125 405.585938 795.078125 Z M 405.585938 40.132812 C 203.625 40.132812 40.132812 203.625 40.132812 405.585938 C 40.132812 607.542969 203.625 771.035156 405.585938 771.035156 C 607.546875 771.035156 771.035156 607.542969 771.035156 405.585938 C 771.035156 203.625 606.34375 40.132812 405.585938 40.132812 Z M 405.585938 40.132812 " fill-opacity="1" fill-rule="nonzero"/></g><g clip-path="url(#8ce65839b8)"><path fill="#ffffff" d="M 149.863281 556.996094 L 298.285156 556.996094 C 302.84375 556.996094 306.53125 553.320312 306.53125 548.773438 L 306.53125 515.839844 C 306.53125 497.695312 291.738281 482.941406 273.546875 482.941406 C 273.457031 482.941406 273.390625 482.988281 273.308594 482.988281 L 257.058594 482.988281 L 257.058594 465.773438 C 276.730469 454.382812 290.023438 433.195312 290.039062 408.925781 C 290.039062 408.925781 290.039062 408.917969 290.039062 408.917969 L 290.039062 371.894531 C 290.039062 353.816406 283.0625 337.375 271.734375 324.957031 C 271.554688 324.71875 271.339844 324.503906 271.125 324.28125 C 258.320312 310.601562 240.144531 301.984375 219.945312 301.984375 C 181.304688 301.984375 149.863281 333.34375 149.863281 371.894531 L 149.863281 375.976562 C 149.863281 376.320312 150.03125 376.625 150.0625 376.960938 C 150.128906 377.511719 150.210938 378.039062 150.382812 378.558594 C 150.558594 379.066406 150.78125 379.511719 151.042969 379.964844 C 151.300781 380.425781 151.5625 380.851562 151.910156 381.253906 C 152.253906 381.660156 152.636719 381.988281 153.054688 382.316406 C 153.46875 382.644531 153.871094 382.933594 154.34375 383.179688 C 154.828125 383.433594 155.332031 383.601562 155.875 383.746094 C 156.207031 383.847656 156.46875 384.042969 156.816406 384.09375 C 157.269531 384.167969 157.65625 384.175781 158.101562 384.25 L 158.101562 408.90625 C 158.101562 408.90625 158.101562 408.917969 158.101562 408.917969 C 158.117188 433.1875 171.410156 454.375 191.085938 465.765625 L 191.085938 482.980469 L 174.839844 482.980469 C 174.75 482.980469 174.683594 482.933594 174.601562 482.933594 C 156.410156 482.933594 141.617188 497.6875 141.617188 515.832031 L 141.617188 548.765625 C 141.617188 553.320312 145.304688 556.996094 149.863281 556.996094 Z M 224.074219 500.359375 L 233.820312 505.222656 L 224.074219 527.90625 L 214.328125 505.222656 Z M 290.039062 515.839844 L 290.039062 540.546875 L 236.582031 540.546875 L 254.253906 499.441406 L 273.546875 499.441406 C 273.605469 499.441406 273.65625 499.40625 273.714844 499.40625 C 282.726562 499.496094 290.039062 506.824219 290.039062 515.839844 Z M 266.695312 345.816406 C 269.425781 350.675781 271.429688 355.988281 272.535156 361.621094 C 268.765625 358.769531 265.203125 356.949219 261.714844 355.90625 Z M 219.945312 318.433594 C 233.46875 318.433594 245.800781 323.492188 255.234375 331.765625 L 243.023438 356.589844 C 239.757812 357.550781 236.378906 358.816406 232.78125 360.242188 C 219.09375 365.652344 200.476562 372.777344 166.519531 368.722656 C 168.1875 340.722656 191.472656 318.433594 219.945312 318.433594 Z M 174.601562 408.882812 L 174.601562 386.042969 C 206.601562 388.140625 225.660156 380.738281 238.851562 375.53125 C 254.386719 369.394531 259.019531 367.628906 273.546875 386.019531 L 273.546875 408.890625 C 273.546875 436.097656 251.359375 458.234375 224.074219 458.234375 C 196.789062 458.234375 174.601562 436.089844 174.601562 408.882812 Z M 224.074219 474.675781 C 229.773438 474.675781 235.28125 473.867188 240.566406 472.503906 L 240.566406 487.753906 L 238.941406 489.371094 L 227.769531 483.796875 C 227.585938 483.707031 227.382812 483.714844 227.191406 483.640625 C 226.671875 483.425781 226.152344 483.320312 225.609375 483.210938 C 225.089844 483.113281 224.601562 483.015625 224.082031 483.015625 C 223.5625 483.015625 223.078125 483.121094 222.558594 483.210938 C 222.011719 483.320312 221.484375 483.417969 220.964844 483.640625 C 220.785156 483.714844 220.578125 483.707031 220.398438 483.796875 L 209.226562 489.371094 L 207.582031 487.761719 L 207.582031 472.511719 C 212.871094 473.867188 218.378906 474.675781 224.074219 474.675781 Z M 174.4375 499.40625 C 174.496094 499.40625 174.542969 499.441406 174.601562 499.441406 L 193.90625 499.441406 L 211.574219 540.546875 L 158.109375 540.546875 L 158.109375 515.839844 C 158.109375 506.824219 165.425781 499.496094 174.4375 499.40625 Z M 174.4375 499.40625 " fill-opacity="1" fill-rule="nonzero"/></g><g clip-path="url(#6485e74853)"><path fill="#ffffff" d="M 463.199219 556.996094 L 446.707031 556.996094 L 446.707031 537.636719 C 471.3125 523.398438 487.933594 496.890625 487.933594 466.523438 L 487.933594 417.132812 C 487.933594 397.269531 473.742188 380.65625 454.953125 376.832031 L 454.953125 351.332031 C 454.953125 346.792969 451.265625 343.109375 446.707031 343.109375 L 397.234375 343.109375 C 356.308594 343.109375 323.023438 376.320312 323.023438 417.140625 L 323.023438 466.933594 C 323.023438 466.984375 323.046875 467.023438 323.046875 467.074219 C 323.246094 497.210938 339.792969 523.488281 364.25 537.652344 L 364.25 557.007812 L 347.757812 557.007812 C 320.472656 557.007812 298.285156 579.140625 298.285156 606.355469 L 298.285156 639.253906 C 298.285156 648.328125 305.683594 655.707031 314.777344 655.707031 L 496.179688 655.707031 C 505.273438 655.707031 512.671875 648.328125 512.671875 639.253906 L 512.671875 606.355469 C 512.671875 579.132812 490.480469 556.996094 463.199219 556.996094 Z M 496.179688 606.347656 L 496.179688 639.246094 L 417.664062 639.246094 L 444.042969 573.449219 L 463.199219 573.449219 C 481.386719 573.449219 496.179688 588.203125 496.179688 606.347656 Z M 392.382812 589.089844 C 392.484375 589.050781 392.574219 589.074219 392.671875 589.027344 L 405.476562 582.644531 L 418.285156 589.027344 C 418.382812 589.074219 418.472656 589.050781 418.574219 589.089844 C 418.992188 589.28125 419.414062 589.363281 419.851562 589.488281 L 405.476562 625.332031 L 391.105469 589.496094 C 391.550781 589.363281 391.964844 589.289062 392.382812 589.089844 Z M 397.234375 359.558594 L 438.460938 359.558594 L 438.460938 384.234375 C 438.460938 388.773438 442.148438 392.457031 446.707031 392.457031 C 460.34375 392.457031 471.441406 403.527344 471.441406 417.140625 L 471.441406 426.558594 L 459.570312 418.554688 C 459.222656 418.324219 458.828125 418.277344 458.457031 418.09375 C 458.011719 417.882812 457.589844 417.667969 457.113281 417.542969 C 456.535156 417.378906 455.972656 417.339844 455.390625 417.304688 C 454.910156 417.28125 454.464844 417.246094 453.988281 417.304688 C 453.394531 417.378906 452.839844 417.550781 452.28125 417.75 C 451.957031 417.855469 451.628906 417.847656 451.316406 417.996094 C 451.160156 418.078125 435.804688 425.375 409.601562 425.375 C 382.582031 425.375 358.839844 417.652344 358.59375 417.570312 C 358.421875 417.511719 358.253906 417.550781 358.082031 417.503906 C 357.523438 417.355469 356.960938 417.332031 356.382812 417.304688 C 355.871094 417.28125 355.386719 417.238281 354.882812 417.304688 C 354.371094 417.378906 353.902344 417.550781 353.398438 417.726562 C 352.871094 417.898438 352.359375 418.070312 351.875 418.351562 C 351.707031 418.449219 351.527344 418.457031 351.371094 418.554688 L 339.511719 426.558594 L 339.511719 417.140625 C 339.511719 385.394531 365.414062 359.558594 397.234375 359.558594 Z M 339.511719 466.53125 L 339.511719 446.414062 L 357.375 434.378906 C 365.726562 436.757812 386.273438 441.824219 409.601562 441.824219 C 431.519531 441.824219 446.8125 437.316406 453.988281 434.652344 L 471.441406 446.414062 L 471.441406 466.53125 C 471.441406 502.8125 441.851562 532.324219 405.46875 532.324219 C 369.097656 532.324219 339.511719 502.8125 339.511719 466.53125 Z M 405.46875 548.773438 C 414.085938 548.773438 422.398438 547.441406 430.214844 544.980469 L 430.214844 561.816406 L 420.34375 571.664062 L 409.171875 566.085938 C 408.992188 565.996094 408.785156 566.003906 408.601562 565.929688 C 408.082031 565.714844 407.554688 565.609375 407.011719 565.503906 C 406.492188 565.402344 406.007812 565.304688 405.488281 565.304688 C 404.96875 565.304688 404.480469 565.410156 403.960938 565.503906 C 403.417969 565.609375 402.882812 565.707031 402.371094 565.929688 C 402.1875 566.003906 401.980469 565.996094 401.800781 566.085938 L 390.628906 571.664062 L 380.742188 561.816406 L 380.742188 544.980469 C 388.550781 547.441406 396.851562 548.773438 405.46875 548.773438 Z M 347.757812 573.449219 L 366.914062 573.449219 L 393.292969 639.246094 L 314.808594 639.246094 C 314.792969 639.246094 314.785156 639.238281 314.769531 639.238281 L 314.769531 606.347656 C 314.777344 588.203125 329.570312 573.449219 347.757812 573.449219 Z M 347.757812 573.449219 " fill-opacity="1" fill-rule="nonzero"/></g><g clip-path="url(#c8da23e4b6)"><path fill="#ffffff" d="M 595.128906 293.726562 C 580.382812 293.726562 565.089844 299.550781 550.734375 310.496094 C 534.050781 312.109375 520.917969 326.015625 520.917969 343.074219 L 520.917969 408.917969 C 520.917969 408.917969 520.917969 408.925781 520.917969 408.925781 C 520.933594 433.195312 534.226562 454.382812 553.898438 465.773438 L 553.898438 482.988281 L 537.648438 482.988281 C 537.554688 482.988281 537.492188 482.941406 537.40625 482.941406 C 519.21875 482.941406 504.425781 497.695312 504.425781 515.839844 L 504.425781 548.773438 C 504.425781 553.320312 508.113281 556.996094 512.671875 556.996094 L 661.09375 556.996094 C 665.652344 556.996094 669.335938 553.320312 669.335938 548.773438 L 669.335938 515.839844 C 669.335938 497.695312 654.546875 482.941406 636.355469 482.941406 C 636.265625 482.941406 636.199219 482.988281 636.117188 482.988281 L 619.863281 482.988281 L 619.863281 465.773438 C 633.503906 457.871094 644.039062 445.261719 649.242188 430.167969 C 651.535156 436.371094 652.847656 443.03125 652.847656 450.023438 C 652.847656 454.574219 656.53125 458.25 661.09375 458.25 C 665.652344 458.25 669.335938 454.574219 669.335938 450.023438 L 669.335938 367.75 C 669.335938 326.9375 636.050781 293.726562 595.128906 293.726562 Z M 545.652344 328.914062 L 545.652344 359.527344 C 545.652344 365.585938 542.3125 370.835938 537.40625 373.6875 L 537.40625 343.074219 C 537.40625 337.015625 540.746094 331.765625 545.652344 328.914062 Z M 586.882812 500.359375 L 596.628906 505.222656 L 586.882812 527.90625 L 577.136719 505.222656 Z M 537.242188 499.40625 C 537.300781 499.40625 537.351562 499.441406 537.40625 499.441406 L 556.710938 499.441406 L 574.382812 540.546875 L 520.917969 540.546875 L 520.917969 515.839844 C 520.917969 506.824219 528.230469 499.496094 537.242188 499.40625 Z M 652.847656 515.839844 L 652.847656 540.546875 L 599.390625 540.546875 L 617.058594 499.441406 L 636.355469 499.441406 C 636.414062 499.441406 636.460938 499.40625 636.519531 499.40625 C 645.53125 499.496094 652.847656 506.824219 652.847656 515.839844 Z M 603.371094 487.761719 L 601.75 489.378906 L 590.574219 483.804688 C 590.394531 483.714844 590.1875 483.722656 590.007812 483.648438 C 589.488281 483.433594 588.960938 483.328125 588.414062 483.21875 C 587.894531 483.121094 587.410156 483.023438 586.890625 483.023438 C 586.371094 483.023438 585.882812 483.128906 585.363281 483.21875 C 584.820312 483.328125 584.292969 483.425781 583.78125 483.648438 C 583.589844 483.722656 583.386719 483.714844 583.203125 483.804688 L 572.03125 489.378906 L 570.390625 487.761719 L 570.390625 472.511719 C 575.675781 473.875 581.183594 474.683594 586.882812 474.683594 C 592.578125 474.683594 598.085938 473.875 603.371094 472.511719 Z M 586.882812 458.226562 C 559.597656 458.226562 537.40625 436.089844 537.40625 408.882812 L 537.40625 391.257812 C 543.921875 389.570312 549.601562 385.96875 553.898438 381.058594 C 559.941406 387.96875 568.742188 392.425781 578.636719 392.425781 L 595.128906 392.425781 C 611.246094 392.425781 625.832031 399.070312 636.3125 409.738281 C 635.84375 436.542969 613.871094 458.226562 586.882812 458.226562 Z M 652.847656 403.585938 C 652.1875 402.773438 651.484375 402.007812 650.792969 401.226562 C 650.570312 400.960938 650.363281 400.699219 650.109375 400.46875 C 636.519531 385.46875 616.9375 375.976562 595.128906 375.976562 L 578.636719 375.976562 C 569.542969 375.976562 562.144531 368.597656 562.144531 359.527344 L 562.144531 322.464844 C 570.449219 316.402344 582.132812 310.175781 595.128906 310.175781 C 626.945312 310.175781 652.847656 336.003906 652.847656 367.75 Z M 652.847656 403.585938 " fill-opacity="1" fill-rule="nonzero"/></g><g clip-path="url(#4309c25b67)"><path fill="#ffffff" d="M 279.1875 211.050781 L 331.269531 228.363281 L 331.269531 277.257812 C 331.269531 290.863281 342.367188 301.933594 356.003906 301.933594 L 454.910156 301.933594 C 454.925781 301.933594 454.933594 301.941406 454.953125 301.941406 C 468.589844 301.941406 479.695312 290.871094 479.695312 277.257812 L 479.695312 228.363281 L 520.917969 214.660156 L 520.917969 252.585938 C 520.917969 257.125 524.601562 260.808594 529.164062 260.808594 C 533.722656 260.808594 537.40625 257.125 537.40625 252.585938 L 537.40625 203.242188 C 537.40625 203.234375 537.398438 203.226562 537.398438 203.21875 C 537.398438 202.207031 537.167969 201.253906 536.824219 200.347656 C 536.707031 200.035156 536.542969 199.78125 536.386719 199.484375 C 536.082031 198.910156 535.734375 198.382812 535.304688 197.898438 C 535.074219 197.625 534.828125 197.378906 534.554688 197.140625 C 534.085938 196.730469 533.558594 196.390625 532.996094 196.085938 C 532.691406 195.921875 532.410156 195.734375 532.074219 195.609375 C 531.964844 195.570312 531.890625 195.488281 531.777344 195.453125 L 408.09375 154.328125 C 406.402344 153.769531 404.5625 153.769531 402.871094 154.328125 L 279.1875 195.453125 C 275.816406 196.566406 273.546875 199.699219 273.546875 203.242188 C 273.546875 206.789062 275.816406 209.929688 279.1875 211.050781 Z M 463.207031 277.257812 C 463.207031 281.792969 459.511719 285.476562 454.96875 285.484375 C 454.96875 285.484375 454.960938 285.484375 454.953125 285.484375 L 356.003906 285.484375 C 351.453125 285.484375 347.757812 281.792969 347.757812 277.257812 L 347.757812 233.847656 L 402.871094 252.171875 C 403.722656 252.453125 404.605469 252.59375 405.476562 252.59375 C 406.351562 252.59375 407.242188 252.453125 408.082031 252.171875 L 463.207031 233.847656 Z M 405.476562 170.789062 L 478.328125 195.011719 L 405.476562 195.011719 C 400.917969 195.011719 397.234375 198.695312 397.234375 203.234375 C 397.234375 207.773438 400.917969 211.460938 405.476562 211.460938 L 478.378906 211.460938 L 405.476562 235.699219 L 307.867188 203.242188 Z M 405.476562 170.789062 " fill-opacity="1" fill-rule="nonzero"/></g></svg>